[Header]			# Header keywords are followed by a single value
FileType htr		# single word string
DataType HTRS		# Hierarchical translations followed by rotations and Scale
FileVersion 1		# integer
NumSegments 20		# integer
NumFrames 8		# integer
DataFrameRate 60	# integer
EulerRotationOrder ZYX	# one word string
CalibrationUnits mm	# one word string
RotationUnits Degrees	# one word string
GlobalAxisofGravity Y	# character, X or Y or Z
BoneLengthAxis Y
ScaleFactor 1.000000
[SegmentNames&Hierarchy]
#CHILD	PARENT
LowerTorso	GLOBAL
UpperTorso	LowerTorso
LCollarBone	UpperTorso
RCollarBone	UpperTorso
LUpArm	LCollarBone
RUpArm	RCollarBone
LLowArm	LUpArm
RLowArm	RUpArm
LHand	LLowArm
RHand	RLowArm
LPelvis	LowerTorso
RPelvis	LowerTorso
LThigh	LPelvis
RThigh	RPelvis
LLowLeg	LThigh
RLowLeg	RThigh
LFoot	LLowLeg
RFoot	RLowLeg
Neck	UpperTorso
Head	Neck
[BasePosition]
#SegmentName Tx, Ty, Tz, Rx, Ry, Rz, BoneLength
LowerTorso	0.000000	0.000000	0.000000	0.000000	0.000000	0.000000	247.497849
UpperTorso	0.000000	247.497849	0.000000	-3.483188	-0.016176	-0.898562	303.935425
LCollarBone	0.000000	303.935425	0.000000	-2.778975	2.380151	-103.909637	160.814774
RCollarBone	0.000000	303.935425	0.000000	1.923138	-2.431442	97.423370	173.085861
LUpArm	0.000000	160.814774	0.000000	9.905276	-0.146364	3.830753	266.228302
RUpArm	0.000000	173.085861	0.000000	3.559436	0.163580	4.186032	250.544907
LLowArm	0.000000	266.228302	0.000000	0.604391	2.460426	18.478745	239.401855
RLowArm	0.000000	250.544907	0.000000	-4.677841	-1.676118	-16.763147	247.676224
LHand	0.000000	239.401855	0.000000	-2.922581	-1.504997	-10.879651	178.693573
RHand	0.000000	247.676224	0.000000	8.087741	0.221451	14.771751	171.097885
LPelvis	0.000000	0.000000	0.000000	25.628080	-1.004481	-103.107483	127.213554
RPelvis	0.000000	0.000000	0.000000	7.212610	1.026056	95.806335	154.731140
LThigh	0.000000	127.213554	0.000000	-8.629928	-24.934669	-78.343170	392.414856
RThigh	0.000000	154.731140	0.000000	-0.087953	7.045837	82.361420	403.151337
LLowLeg	0.000000	392.414856	0.000000	-11.135172	-0.396179	6.207254	411.539612
RLowLeg	0.000000	403.151337	0.000000	-15.879393	-0.038285	-2.567663	396.965240
LFoot	0.000000	411.539612	0.000000	86.993790	-9.419292	-7.421347	182.020935
RFoot	0.000000	396.965240	0.000000	85.685738	19.489246	8.810133	181.714371
Neck	0.000000	303.935425	0.000000	26.917892	0.010495	-0.245093	141.112030
Head	0.000000	141.112030	0.000000	-34.290924	-1.751020	-3.852423	164.098740
#Beginning of Data. Separated by tabs.
[LowerTorso]
#Fr	Tx	Ty	Tz	Rx	Ry	Rz	SF
750	262.563049	777.745361	659.947083	-3.127244	40.211906	-7.827085	1.000000
751	278.462524	785.563110	672.251587	-2.871300	41.095436	-7.627598	1.000000
752	294.876190	793.221191	684.824585	-2.669805	41.984325	-7.506803	1.000000
753	311.788727	800.520386	697.716797	-2.546482	42.815952	-7.439836	1.000000
754	329.249084	807.274597	710.828857	-2.481243	43.536964	-7.446729	1.000000
755	347.391602	813.265930	724.028809	-2.441655	44.078140	-7.576250	1.000000
756	366.335907	818.247131	737.378662	-2.483146	44.366570	-7.867617	1.000000
757	386.102020	821.987976	751.195190	-2.747313	44.380733	-8.333300	1.000000
[UpperTorso]
#Fr	Tx	Ty	Tz	Rx	Ry	Rz	SF
750	0.000000	0.000000	0.000000	17.947262	-10.753302	0.509006	1.000000
751	0.000000	0.000000	0.000000	17.132761	-9.453447	0.444825	1.000000
752	0.000000	0.000000	0.000000	16.324970	-8.248438	0.367034	1.000000
753	0.000000	0.000000	0.000000	15.528992	-7.073295	0.269115	1.000000
754	0.000000	0.000000	0.000000	14.715390	-5.900387	0.180616	1.000000
755	0.000000	0.000000	0.000000	13.857383	-4.673231	0.183195	1.000000
756	0.000000	0.000000	0.000000	12.969902	-3.339737	0.339161	1.000000
757	0.000000	0.000000	0.000000	12.126142	-1.871161	0.661334	1.000000
[LCollarBone]
#Fr	Tx	Ty	Tz	Rx	Ry	Rz	SF
750	0.000000	0.000000	0.000000	4.739735	-0.054352	9.866465	1.000000
751	0.000000	0.000000	0.000000	4.089591	-0.104162	9.938133	1.000000
752	0.000000	0.000000	0.000000	3.321060	-0.168249	10.099065	1.000000
753	0.000000	0.000000	0.000000	2.458972	-0.237941	10.293035	1.000000
754	0.000000	0.000000	0.000000	1.565088	-0.300032	10.396719	1.000000
755	0.000000	0.000000	0.000000	0.682760	-0.350177	10.304430	1.000000
756	0.000000	0.000000	0.000000	-0.124710	-0.388801	9.941613	1.000000
757	0.000000	0.000000	0.000000	-0.835793	-0.421484	9.290509	1.000000
[RCollarBone]
#Fr	Tx	Ty	Tz	Rx	Ry	Rz	SF
750	0.000000	0.000000	0.000000	10.146802	-2.793349	9.735213	1.000000
751	0.000000	0.000000	0.000000	10.140784	-2.593792	8.406916	1.000000
752	0.000000	0.000000	0.000000	9.982512	-2.339348	6.962369	1.000000
753	0.000000	0.000000	0.000000	9.716008	-2.058051	5.448861	1.000000
754	0.000000	0.000000	0.000000	9.474611	-1.792517	3.916833	1.000000
755	0.000000	0.000000	0.000000	9.276575	-1.546039	2.374449	1.000000
756	0.000000	0.000000	0.000000	9.216064	-1.337187	0.834284	1.000000
757	0.000000	0.000000	0.000000	9.243136	-1.157279	-0.621241	1.000000
[LUpArm]
#Fr	Tx	Ty	Tz	Rx	Ry	Rz	SF
750	0.000000	0.000000	0.000000	45.873333	-27.059711	9.743240	1.000000
751	0.000000	0.000000	0.000000	47.228397	-28.589899	8.886236	1.000000
752	0.000000	0.000000	0.000000	48.568687	-29.680105	8.128004	1.000000
753	0.000000	0.000000	0.000000	49.810204	-30.295841	7.592112	1.000000
754	0.000000	0.000000	0.000000	50.891571	-30.447918	7.321467	1.000000
755	0.000000	0.000000	0.000000	51.836323	-30.200371	7.289942	1.000000
756	0.000000	0.000000	0.000000	52.684254	-29.643280	7.442045	1.000000
757	0.000000	0.000000	0.000000	53.493500	-28.848059	7.755531	1.000000
[RUpArm]
#Fr	Tx	Ty	Tz	Rx	Ry	Rz	SF
750	0.000000	0.000000	0.000000	-13.559324	-22.317762	12.359329	1.000000
751	0.000000	0.000000	0.000000	-13.707040	-21.649670	10.214271	1.000000
752	0.000000	0.000000	0.000000	-13.838605	-21.645559	8.293110	1.000000
753	0.000000	0.000000	0.000000	-13.954970	-22.208212	6.545224	1.000000
754	0.000000	0.000000	0.000000	-14.140182	-23.020618	4.954490	1.000000
755	0.000000	0.000000	0.000000	-14.444059	-23.751410	3.494500	1.000000
756	0.000000	0.000000	0.000000	-14.928016	-24.208147	2.171604	1.000000
757	0.000000	0.000000	0.000000	-15.575847	-24.366854	0.968453	1.000000
[LLowArm]
#Fr	Tx	Ty	Tz	Rx	Ry	Rz	SF
750	0.000000	0.000000	0.000000	110.619461	-9.756571	-10.600030	1.000000
751	0.000000	0.000000	0.000000	110.066559	-9.774439	-10.517705	1.000000
752	0.000000	0.000000	0.000000	109.621407	-9.788251	-10.451300	1.000000
753	0.000000	0.000000	0.000000	109.289185	-9.798227	-10.401670	1.000000
754	0.000000	0.000000	0.000000	109.002304	-9.806612	-10.358769	1.000000
755	0.000000	0.000000	0.000000	108.728767	-9.814411	-10.317826	1.000000
756	0.000000	0.000000	0.000000	108.463806	-9.821780	-10.278133	1.000000
757	0.000000	0.000000	0.000000	108.207336	-9.828743	-10.239677	1.000000
[RLowArm]
#Fr	Tx	Ty	Tz	Rx	Ry	Rz	SF
750	0.000000	0.000000	0.000000	21.224367	1.836428	0.315374	1.000000
751	0.000000	0.000000	0.000000	22.152554	1.912976	0.344498	1.000000
752	0.000000	0.000000	0.000000	23.046864	1.986269	0.373728	1.000000
753	0.000000	0.000000	0.000000	23.960226	2.060636	0.404757	1.000000
754	0.000000	0.000000	0.000000	25.063747	2.149804	0.443820	1.000000
755	0.000000	0.000000	0.000000	26.452494	2.260907	0.495407	1.000000
756	0.000000	0.000000	0.000000	28.177650	2.397110	0.563212	1.000000
757	0.000000	0.000000	0.000000	30.118454	2.547789	0.644351	1.000000
[LHand]
#Fr	Tx	Ty	Tz	Rx	Ry	Rz	SF
750	0.000000	0.000000	0.000000	26.454605	19.185381	26.047680	1.000000
751	0.000000	0.000000	0.000000	26.158756	18.723238	25.844524	1.000000
752	0.000000	0.000000	0.000000	26.051245	18.725126	25.432928	1.000000
753	0.000000	0.000000	0.000000	26.007668	19.009462	24.941307	1.000000
754	0.000000	0.000000	0.000000	26.106722	19.395031	24.501211	1.000000
755	0.000000	0.000000	0.000000	26.421312	19.765406	24.201447	1.000000
756	0.000000	0.000000	0.000000	26.926399	20.092342	24.020576	1.000000
757	0.000000	0.000000	0.000000	27.438963	20.382338	23.861280	1.000000
[RHand]
#Fr	Tx	Ty	Tz	Rx	Ry	Rz	SF
750	0.000000	0.000000	0.000000	9.148339	-3.966333	-6.268639	1.000000
751	0.000000	0.000000	0.000000	6.518030	-2.840154	-6.911818	1.000000
752	0.000000	0.000000	0.000000	4.816717	-2.425035	-7.787129	1.000000
753	0.000000	0.000000	0.000000	3.724696	-2.852453	-8.857809	1.000000
754	0.000000	0.000000	0.000000	2.863170	-4.106698	-10.034802	1.000000
755	0.000000	0.000000	0.000000	2.023239	-5.947137	-11.168754	1.000000
756	0.000000	0.000000	0.000000	1.042481	-7.988788	-12.160181	1.000000
757	0.000000	0.000000	0.000000	-0.084521	-9.759092	-12.970498	1.000000
[LPelvis]
#Fr	Tx	Ty	Tz	Rx	Ry	Rz	SF
750	0.000000	0.000000	0.000000	0.000000	0.000000	0.000000	1.000000
751	0.000000	0.000000	0.000000	0.000000	0.000000	0.000000	1.000000
752	0.000000	0.000000	0.000000	0.000000	0.000000	0.000000	1.000000
753	0.000000	0.000000	0.000000	0.000000	0.000000	0.000000	1.000000
754	0.000000	0.000000	0.000000	0.000000	0.000000	0.000000	1.000000
755	0.000000	0.000000	0.000000	0.000000	0.000000	0.000000	1.000000
756	0.000000	0.000000	0.000000	0.000000	0.000000	0.000000	1.000000
757	0.000000	0.000000	0.000000	0.000000	0.000000	0.000000	1.000000
[RPelvis]
#Fr	Tx	Ty	Tz	Rx	Ry	Rz	SF
750	0.000000	0.000000	0.000000	0.000000	0.000000	0.000000	1.000000
751	0.000000	0.000000	0.000000	0.000000	0.000000	0.000000	1.000000
752	0.000000	0.000000	0.000000	0.000000	0.000000	0.000000	1.000000
753	0.000000	0.000000	0.000000	0.000000	0.000000	0.000000	1.000000
754	0.000000	0.000000	0.000000	0.000000	0.000000	0.000000	1.000000
755	0.000000	0.000000	0.000000	0.000000	0.000000	0.000000	1.000000
756	0.000000	0.000000	0.000000	0.000000	0.000000	0.000000	1.000000
757	0.000000	0.000000	0.000000	0.000000	0.000000	0.000000	1.000000
[LThigh]
#Fr	Tx	Ty	Tz	Rx	Ry	Rz	SF
750	0.000000	0.000000	0.000000	51.304932	4.733732	-9.094410	1.000000
751	0.000000	0.000000	0.000000	52.070530	4.078831	-9.766219	1.000000
752	0.000000	0.000000	0.000000	52.224022	3.274575	-10.394056	1.000000
753	0.000000	0.000000	0.000000	51.778843	2.287503	-11.009403	1.000000
754	0.000000	0.000000	0.000000	50.848106	1.155203	-11.562706	1.000000
755	0.000000	0.000000	0.000000	49.561810	-0.046936	-11.959878	1.000000
756	0.000000	0.000000	0.000000	47.935905	-1.312372	-12.132888	1.000000
757	0.000000	0.000000	0.000000	45.959118	-2.726072	-12.096020	1.000000
[RThigh]
#Fr	Tx	Ty	Tz	Rx	Ry	Rz	SF
750	0.000000	0.000000	0.000000	17.661203	5.431977	7.203598	1.000000
751	0.000000	0.000000	0.000000	15.311400	5.625498	6.504978	1.000000
752	0.000000	0.000000	0.000000	12.836291	5.746056	5.928579	1.000000
753	0.000000	0.000000	0.000000	10.233171	5.805242	5.460705	1.000000
754	0.000000	0.000000	0.000000	7.589428	5.835162	5.082513	1.000000
755	0.000000	0.000000	0.000000	5.055025	5.801182	4.785021	1.000000
756	0.000000	0.000000	0.000000	2.692924	5.665832	4.542953	1.000000
757	0.000000	0.000000	0.000000	0.443027	5.463783	4.307112	1.000000
[LLowLeg]
#Fr	Tx	Ty	Tz	Rx	Ry	Rz	SF
750	0.000000	0.000000	0.000000	-70.650696	5.158541	-1.935213	1.000000
751	0.000000	0.000000	0.000000	-63.944500	4.820835	-1.493039	1.000000
752	0.000000	0.000000	0.000000	-56.507816	4.388690	-1.052582	1.000000
753	0.000000	0.000000	0.000000	-48.452183	3.860230	-0.642980	1.000000
754	0.000000	0.000000	0.000000	-39.941216	3.244908	-0.295260	1.000000
755	0.000000	0.000000	0.000000	-31.128874	2.560282	-0.035381	1.000000
756	0.000000	0.000000	0.000000	-22.177519	1.831905	0.117963	1.000000
757	0.000000	0.000000	0.000000	-13.470106	1.108463	0.156535	1.000000
[RLowLeg]
#Fr	Tx	Ty	Tz	Rx	Ry	Rz	SF
750	0.000000	0.000000	0.000000	-44.263992	-2.434449	0.303542	1.000000
751	0.000000	0.000000	0.000000	-42.240299	-2.333213	0.249153	1.000000
752	0.000000	0.000000	0.000000	-39.981106	-2.217996	0.192702	1.000000
753	0.000000	0.000000	0.000000	-37.545185	-2.091363	0.136976	1.000000
754	0.000000	0.000000	0.000000	-35.010868	-1.957210	0.084768	1.000000
755	0.000000	0.000000	0.000000	-32.517406	-1.823078	0.039241	1.000000
756	0.000000	0.000000	0.000000	-30.249352	-1.699441	0.002935	1.000000
757	0.000000	0.000000	0.000000	-28.394747	-1.597330	-0.023096	1.000000
[LFoot]
#Fr	Tx	Ty	Tz	Rx	Ry	Rz	SF
750	0.000000	0.000000	0.000000	3.050808	3.622029	8.886367	1.000000
751	0.000000	0.000000	0.000000	3.717380	3.104820	8.242902	1.000000
752	0.000000	0.000000	0.000000	4.185434	2.486100	7.169908	1.000000
753	0.000000	0.000000	0.000000	4.387112	1.893310	5.928339	1.000000
754	0.000000	0.000000	0.000000	4.466091	1.377411	4.771466	1.000000
755	0.000000	0.000000	0.000000	4.683324	0.937736	3.864634	1.000000
756	0.000000	0.000000	0.000000	5.172176	0.588636	3.300831	1.000000
757	0.000000	0.000000	0.000000	5.777642	0.414006	3.203943	1.000000
[RFoot]
#Fr	Tx	Ty	Tz	Rx	Ry	Rz	SF
750	0.000000	0.000000	0.000000	13.447390	5.000079	4.783051	1.000000
751	0.000000	0.000000	0.000000	11.736856	4.581808	4.639897	1.000000
752	0.000000	0.000000	0.000000	9.873011	4.088907	4.337428	1.000000
753	0.000000	0.000000	0.000000	7.931634	3.526072	3.897233	1.000000
754	0.000000	0.000000	0.000000	5.937798	2.907170	3.399034	1.000000
755	0.000000	0.000000	0.000000	3.796716	2.238603	2.947797	1.000000
756	0.000000	0.000000	0.000000	1.359179	1.590258	2.788036	1.000000
757	0.000000	0.000000	0.000000	-1.475990	1.149498	3.250515	1.000000
[Neck]
#Fr	Tx	Ty	Tz	Rx	Ry	Rz	SF
750	0.000000	0.000000	0.000000	-5.856485	13.710831	-10.938063	1.000000
751	0.000000	0.000000	0.000000	-5.490598	13.591099	-10.974042	1.000000
752	0.000000	0.000000	0.000000	-5.152434	13.489925	-10.978643	1.000000
753	0.000000	0.000000	0.000000	-4.837812	13.395544	-10.957881	1.000000
754	0.000000	0.000000	0.000000	-4.532768	13.295642	-10.925283	1.000000
755	0.000000	0.000000	0.000000	-4.225956	13.178031	-10.886983	1.000000
756	0.000000	0.000000	0.000000	-3.908314	13.035585	-10.842216	1.000000
757	0.000000	0.000000	0.000000	-3.579445	12.865464	-10.777346	1.000000
[Head]
#Fr	Tx	Ty	Tz	Rx	Ry	Rz	SF
750	0.000000	0.000000	0.000000	-14.446473	33.521824	-6.575133	1.000000
751	0.000000	0.000000	0.000000	-13.753853	33.450981	-6.508697	1.000000
752	0.000000	0.000000	0.000000	-13.104187	33.367771	-6.358080	1.000000
753	0.000000	0.000000	0.000000	-12.479391	33.265453	-6.195649	1.000000
754	0.000000	0.000000	0.000000	-11.863146	33.146324	-6.049798	1.000000
755	0.000000	0.000000	0.000000	-11.247325	33.001099	-5.925741	1.000000
756	0.000000	0.000000	0.000000	-10.621670	32.817173	-5.826633	1.000000
757	0.000000	0.000000	0.000000	-9.981191	32.564976	-5.741556	1.000000
[EndOfFile]
